<mxfile host="www.draw.io" modified="2023-04-01T16:43:49.316Z" agent="Mozilla/5.0 (X11; Ubuntu; Linux x86_64; rv:109.0) Gecko/20100101 Firefox/111.0" etag="mHSpLjzl3V_lbdcFJSl-" version="21.1.2">
  <diagram name="Page-1" id="5dXO3Vr72BLDgcloMhcy">
    <mxGraphModel dx="2217" dy="766" grid="1" gridSize="10" guides="1" tooltips="1" connect="1" arrows="1" fold="1" page="1" pageScale="1" pageWidth="850" pageHeight="1100" math="1" shadow="0">
      <root>
        <mxCell id="0" />
        <mxCell id="1" parent="0" />
        <mxCell id="tRHhrFOlf9yo3r4j4NDc-28" style="edgeStyle=orthogonalEdgeStyle;rounded=0;orthogonalLoop=1;jettySize=auto;html=1;entryX=0;entryY=0.5;entryDx=0;entryDy=0;" edge="1" parent="1" source="ptUVhh9PH6rea_wkWG5l-166" target="ptUVhh9PH6rea_wkWG5l-178">
          <mxGeometry relative="1" as="geometry" />
        </mxCell>
        <mxCell id="ptUVhh9PH6rea_wkWG5l-166" value="" style="rounded=1;whiteSpace=wrap;html=1;fillColor=none;" parent="1" vertex="1">
          <mxGeometry x="165" y="520" width="190" height="100" as="geometry" />
        </mxCell>
        <mxCell id="ptUVhh9PH6rea_wkWG5l-5" style="edgeStyle=orthogonalEdgeStyle;rounded=0;orthogonalLoop=1;jettySize=auto;html=1;entryX=0;entryY=0.5;entryDx=0;entryDy=0;" parent="1" source="ptUVhh9PH6rea_wkWG5l-1" target="ptUVhh9PH6rea_wkWG5l-2" edge="1">
          <mxGeometry relative="1" as="geometry" />
        </mxCell>
        <mxCell id="ptUVhh9PH6rea_wkWG5l-1" value="Motion Flow" style="rounded=0;whiteSpace=wrap;html=1;fillColor=#cce5ff;strokeColor=#36393d;glass=0;shadow=0;" parent="1" vertex="1">
          <mxGeometry x="100" y="170" width="140" height="100" as="geometry" />
        </mxCell>
        <mxCell id="ptUVhh9PH6rea_wkWG5l-6" style="edgeStyle=orthogonalEdgeStyle;rounded=0;orthogonalLoop=1;jettySize=auto;html=1;entryX=0;entryY=0.5;entryDx=0;entryDy=0;" parent="1" source="ptUVhh9PH6rea_wkWG5l-2" target="ptUVhh9PH6rea_wkWG5l-3" edge="1">
          <mxGeometry relative="1" as="geometry" />
        </mxCell>
        <mxCell id="ptUVhh9PH6rea_wkWG5l-2" value="Instance Segmentation" style="rounded=0;whiteSpace=wrap;html=1;fillColor=#fff2cc;strokeColor=#d6b656;" parent="1" vertex="1">
          <mxGeometry x="290" y="170" width="140" height="100" as="geometry" />
        </mxCell>
        <mxCell id="ptUVhh9PH6rea_wkWG5l-7" style="edgeStyle=orthogonalEdgeStyle;rounded=0;orthogonalLoop=1;jettySize=auto;html=1;entryX=0;entryY=0.5;entryDx=0;entryDy=0;" parent="1" source="ptUVhh9PH6rea_wkWG5l-3" target="ptUVhh9PH6rea_wkWG5l-4" edge="1">
          <mxGeometry relative="1" as="geometry" />
        </mxCell>
        <mxCell id="ptUVhh9PH6rea_wkWG5l-3" value="Object Detection" style="rounded=0;whiteSpace=wrap;html=1;fillColor=#f8cecc;strokeColor=#b85450;" parent="1" vertex="1">
          <mxGeometry x="480" y="170" width="140" height="100" as="geometry" />
        </mxCell>
        <mxCell id="ptUVhh9PH6rea_wkWG5l-34" style="edgeStyle=orthogonalEdgeStyle;rounded=0;orthogonalLoop=1;jettySize=auto;html=1;" parent="1" source="ptUVhh9PH6rea_wkWG5l-4" target="ptUVhh9PH6rea_wkWG5l-53" edge="1">
          <mxGeometry relative="1" as="geometry">
            <mxPoint x="850" y="220" as="targetPoint" />
          </mxGeometry>
        </mxCell>
        <mxCell id="ptUVhh9PH6rea_wkWG5l-4" value="Semantic Segmentation" style="rounded=0;whiteSpace=wrap;html=1;fillColor=#ffe6cc;strokeColor=#d79b00;" parent="1" vertex="1">
          <mxGeometry x="660" y="170" width="140" height="100" as="geometry" />
        </mxCell>
        <mxCell id="ptUVhh9PH6rea_wkWG5l-16" value="" style="group;flipH=1;" parent="1" vertex="1" connectable="0">
          <mxGeometry x="-120" y="130" width="180" height="140" as="geometry" />
        </mxCell>
        <mxCell id="ptUVhh9PH6rea_wkWG5l-9" value="Data Sequence" style="rounded=0;whiteSpace=wrap;html=1;" parent="ptUVhh9PH6rea_wkWG5l-16" vertex="1">
          <mxGeometry x="40" width="140" height="100" as="geometry" />
        </mxCell>
        <mxCell id="ptUVhh9PH6rea_wkWG5l-12" value="Data Sequence" style="rounded=0;whiteSpace=wrap;html=1;" parent="ptUVhh9PH6rea_wkWG5l-16" vertex="1">
          <mxGeometry x="30" y="10" width="140" height="100" as="geometry" />
        </mxCell>
        <mxCell id="ptUVhh9PH6rea_wkWG5l-13" value="Data Sequence" style="rounded=0;whiteSpace=wrap;html=1;" parent="ptUVhh9PH6rea_wkWG5l-16" vertex="1">
          <mxGeometry x="20" y="20" width="140" height="100" as="geometry" />
        </mxCell>
        <mxCell id="ptUVhh9PH6rea_wkWG5l-14" value="Data Sequence" style="rounded=0;whiteSpace=wrap;html=1;" parent="ptUVhh9PH6rea_wkWG5l-16" vertex="1">
          <mxGeometry x="10" y="30" width="140" height="100" as="geometry" />
        </mxCell>
        <mxCell id="ptUVhh9PH6rea_wkWG5l-15" value="Data Sequence" style="rounded=0;whiteSpace=wrap;html=1;" parent="ptUVhh9PH6rea_wkWG5l-16" vertex="1">
          <mxGeometry y="40" width="140" height="100" as="geometry" />
        </mxCell>
        <mxCell id="ptUVhh9PH6rea_wkWG5l-17" style="edgeStyle=orthogonalEdgeStyle;rounded=0;orthogonalLoop=1;jettySize=auto;html=1;" parent="1" source="ptUVhh9PH6rea_wkWG5l-15" target="ptUVhh9PH6rea_wkWG5l-1" edge="1">
          <mxGeometry relative="1" as="geometry" />
        </mxCell>
        <mxCell id="ptUVhh9PH6rea_wkWG5l-32" value="" style="endArrow=classic;html=1;rounded=0;fillColor=#f8cecc;strokeColor=#b85450;" parent="1" edge="1">
          <mxGeometry width="50" height="50" relative="1" as="geometry">
            <mxPoint x="1030" y="150" as="sourcePoint" />
            <mxPoint x="100" y="150" as="targetPoint" />
          </mxGeometry>
        </mxCell>
        <mxCell id="ptUVhh9PH6rea_wkWG5l-33" value="End-to-End learnable" style="text;html=1;strokeColor=none;fillColor=none;align=center;verticalAlign=middle;whiteSpace=wrap;rounded=0;fontSize=18;" parent="1" vertex="1">
          <mxGeometry x="820" y="110" width="210" height="30" as="geometry" />
        </mxCell>
        <mxCell id="ptUVhh9PH6rea_wkWG5l-35" value="" style="endArrow=none;dashed=1;html=1;rounded=0;" parent="1" edge="1">
          <mxGeometry width="50" height="50" relative="1" as="geometry">
            <mxPoint x="90" y="90" as="sourcePoint" />
            <mxPoint x="90" y="630" as="targetPoint" />
          </mxGeometry>
        </mxCell>
        <mxCell id="ptUVhh9PH6rea_wkWG5l-37" value="" style="endArrow=none;dashed=1;html=1;rounded=0;" parent="1" edge="1">
          <mxGeometry width="50" height="50" relative="1" as="geometry">
            <mxPoint x="440" y="90" as="sourcePoint" />
            <mxPoint x="440" y="480" as="targetPoint" />
          </mxGeometry>
        </mxCell>
        <mxCell id="ptUVhh9PH6rea_wkWG5l-38" value="WP1" style="endArrow=none;dashed=1;html=1;rounded=0;" parent="1" edge="1">
          <mxGeometry width="50" height="50" relative="1" as="geometry">
            <mxPoint x="70" y="480" as="sourcePoint" />
            <mxPoint x="460" y="480" as="targetPoint" />
          </mxGeometry>
        </mxCell>
        <mxCell id="ptUVhh9PH6rea_wkWG5l-40" value="WP2" style="endArrow=none;dashed=1;html=1;rounded=0;" parent="1" edge="1">
          <mxGeometry width="50" height="50" relative="1" as="geometry">
            <mxPoint x="445" y="480" as="sourcePoint" />
            <mxPoint x="835" y="480" as="targetPoint" />
          </mxGeometry>
        </mxCell>
        <mxCell id="ptUVhh9PH6rea_wkWG5l-41" value="" style="endArrow=none;dashed=1;html=1;rounded=0;" parent="1" edge="1">
          <mxGeometry width="50" height="50" relative="1" as="geometry">
            <mxPoint x="820" y="90" as="sourcePoint" />
            <mxPoint x="820" y="480" as="targetPoint" />
          </mxGeometry>
        </mxCell>
        <mxCell id="ptUVhh9PH6rea_wkWG5l-42" value="WP3" style="endArrow=none;dashed=1;html=1;rounded=0;" parent="1" edge="1">
          <mxGeometry width="50" height="50" relative="1" as="geometry">
            <mxPoint x="815" y="480" as="sourcePoint" />
            <mxPoint x="1050" y="480" as="targetPoint" />
          </mxGeometry>
        </mxCell>
        <mxCell id="ptUVhh9PH6rea_wkWG5l-44" value="" style="endArrow=none;dashed=1;html=1;rounded=0;" parent="1" edge="1">
          <mxGeometry width="50" height="50" relative="1" as="geometry">
            <mxPoint x="1030" y="90" as="sourcePoint" />
            <mxPoint x="1030" y="480" as="targetPoint" />
          </mxGeometry>
        </mxCell>
        <mxCell id="ptUVhh9PH6rea_wkWG5l-46" style="edgeStyle=orthogonalEdgeStyle;rounded=0;orthogonalLoop=1;jettySize=auto;html=1;" parent="1" source="ptUVhh9PH6rea_wkWG5l-45" target="ptUVhh9PH6rea_wkWG5l-1" edge="1">
          <mxGeometry relative="1" as="geometry" />
        </mxCell>
        <mxCell id="ptUVhh9PH6rea_wkWG5l-47" style="edgeStyle=orthogonalEdgeStyle;rounded=0;orthogonalLoop=1;jettySize=auto;html=1;" parent="1" source="ptUVhh9PH6rea_wkWG5l-45" target="ptUVhh9PH6rea_wkWG5l-2" edge="1">
          <mxGeometry relative="1" as="geometry" />
        </mxCell>
        <mxCell id="ptUVhh9PH6rea_wkWG5l-45" value="$$\mathcal{L_vis}$$" style="rounded=1;whiteSpace=wrap;html=1;fontSize=18;" parent="1" vertex="1">
          <mxGeometry x="200" y="360" width="120" height="60" as="geometry" />
        </mxCell>
        <mxCell id="ptUVhh9PH6rea_wkWG5l-49" style="edgeStyle=orthogonalEdgeStyle;rounded=0;orthogonalLoop=1;jettySize=auto;html=1;" parent="1" source="ptUVhh9PH6rea_wkWG5l-48" target="ptUVhh9PH6rea_wkWG5l-3" edge="1">
          <mxGeometry relative="1" as="geometry" />
        </mxCell>
        <mxCell id="ptUVhh9PH6rea_wkWG5l-48" value="$$\mathcal{L_traj}$$" style="rounded=1;whiteSpace=wrap;html=1;fontSize=18;" parent="1" vertex="1">
          <mxGeometry x="490" y="360" width="120" height="60" as="geometry" />
        </mxCell>
        <mxCell id="ptUVhh9PH6rea_wkWG5l-51" style="edgeStyle=orthogonalEdgeStyle;rounded=0;orthogonalLoop=1;jettySize=auto;html=1;entryX=0.5;entryY=1;entryDx=0;entryDy=0;" parent="1" target="ptUVhh9PH6rea_wkWG5l-4" edge="1">
          <mxGeometry relative="1" as="geometry">
            <mxPoint x="730" y="310" as="sourcePoint" />
          </mxGeometry>
        </mxCell>
        <mxCell id="ptUVhh9PH6rea_wkWG5l-53" value="$$\mathcal{L_{spatio\_temporal}}$$" style="rounded=1;whiteSpace=wrap;html=1;fontSize=18;" parent="1" vertex="1">
          <mxGeometry x="840" y="195" width="180" height="50" as="geometry" />
        </mxCell>
        <mxCell id="ptUVhh9PH6rea_wkWG5l-143" value="" style="ellipse;whiteSpace=wrap;html=1;aspect=fixed;fillColor=#fff2cc;strokeColor=#d6b656;" parent="1" vertex="1">
          <mxGeometry x="-50" y="540" width="10" height="10" as="geometry" />
        </mxCell>
        <mxCell id="ptUVhh9PH6rea_wkWG5l-144" value="" style="ellipse;whiteSpace=wrap;html=1;aspect=fixed;fillColor=#e1d5e7;strokeColor=#9673a6;" parent="1" vertex="1">
          <mxGeometry x="-80" y="550" width="10" height="10" as="geometry" />
        </mxCell>
        <mxCell id="ptUVhh9PH6rea_wkWG5l-145" value="" style="ellipse;whiteSpace=wrap;html=1;aspect=fixed;fillColor=#d5e8d4;strokeColor=#82b366;" parent="1" vertex="1">
          <mxGeometry x="-100" y="570" width="10" height="10" as="geometry" />
        </mxCell>
        <mxCell id="ptUVhh9PH6rea_wkWG5l-146" value="" style="ellipse;whiteSpace=wrap;html=1;aspect=fixed;fillColor=#dae8fc;strokeColor=#6c8ebf;" parent="1" vertex="1">
          <mxGeometry x="-110" y="590" width="10" height="10" as="geometry" />
        </mxCell>
        <mxCell id="ptUVhh9PH6rea_wkWG5l-147" value="" style="ellipse;whiteSpace=wrap;html=1;aspect=fixed;fillColor=#ffe6cc;strokeColor=#d79b00;" parent="1" vertex="1">
          <mxGeometry x="-25" y="540" width="10" height="10" as="geometry" />
        </mxCell>
        <mxCell id="ptUVhh9PH6rea_wkWG5l-148" value="" style="ellipse;whiteSpace=wrap;html=1;aspect=fixed;fillColor=#f8cecc;strokeColor=#b85450;" parent="1" vertex="1">
          <mxGeometry y="540" width="10" height="10" as="geometry" />
        </mxCell>
        <mxCell id="ptUVhh9PH6rea_wkWG5l-151" value="" style="ellipse;whiteSpace=wrap;html=1;aspect=fixed;fillColor=#e1d5e7;strokeColor=#9673a6;" parent="1" vertex="1">
          <mxGeometry x="30" y="590" width="10" height="10" as="geometry" />
        </mxCell>
        <mxCell id="ptUVhh9PH6rea_wkWG5l-152" value="" style="ellipse;whiteSpace=wrap;html=1;aspect=fixed;fillColor=#fff2cc;strokeColor=#d6b656;" parent="1" vertex="1">
          <mxGeometry y="590" width="10" height="10" as="geometry" />
        </mxCell>
        <mxCell id="ptUVhh9PH6rea_wkWG5l-153" value="" style="ellipse;whiteSpace=wrap;html=1;aspect=fixed;fillColor=#fff2cc;strokeColor=#d6b656;" parent="1" vertex="1">
          <mxGeometry x="-25" y="590" width="10" height="10" as="geometry" />
        </mxCell>
        <mxCell id="ptUVhh9PH6rea_wkWG5l-154" value="" style="ellipse;whiteSpace=wrap;html=1;aspect=fixed;fillColor=#f8cecc;strokeColor=#b85450;" parent="1" vertex="1">
          <mxGeometry x="-50" y="590" width="10" height="10" as="geometry" />
        </mxCell>
        <mxCell id="tRHhrFOlf9yo3r4j4NDc-27" style="edgeStyle=orthogonalEdgeStyle;rounded=0;orthogonalLoop=1;jettySize=auto;html=1;entryX=0;entryY=0.5;entryDx=0;entryDy=0;" edge="1" parent="1" source="ptUVhh9PH6rea_wkWG5l-155" target="ptUVhh9PH6rea_wkWG5l-166">
          <mxGeometry relative="1" as="geometry" />
        </mxCell>
        <mxCell id="ptUVhh9PH6rea_wkWG5l-155" value="" style="rounded=1;whiteSpace=wrap;html=1;fillColor=none;" parent="1" vertex="1">
          <mxGeometry x="-120" y="520" width="180" height="100" as="geometry" />
        </mxCell>
        <mxCell id="ptUVhh9PH6rea_wkWG5l-156" value="" style="ellipse;whiteSpace=wrap;html=1;aspect=fixed;fillColor=#fff2cc;strokeColor=#d6b656;" parent="1" vertex="1">
          <mxGeometry x="245" y="540" width="10" height="10" as="geometry" />
        </mxCell>
        <mxCell id="ptUVhh9PH6rea_wkWG5l-157" value="" style="ellipse;whiteSpace=wrap;html=1;aspect=fixed;fillColor=#e1d5e7;strokeColor=#9673a6;" parent="1" vertex="1">
          <mxGeometry x="215" y="550" width="10" height="10" as="geometry" />
        </mxCell>
        <mxCell id="ptUVhh9PH6rea_wkWG5l-158" value="" style="ellipse;whiteSpace=wrap;html=1;aspect=fixed;fillColor=#d5e8d4;strokeColor=#82b366;" parent="1" vertex="1">
          <mxGeometry x="195" y="570" width="10" height="10" as="geometry" />
        </mxCell>
        <mxCell id="ptUVhh9PH6rea_wkWG5l-159" value="" style="ellipse;whiteSpace=wrap;html=1;aspect=fixed;fillColor=#dae8fc;strokeColor=#6c8ebf;" parent="1" vertex="1">
          <mxGeometry x="185" y="590" width="10" height="10" as="geometry" />
        </mxCell>
        <mxCell id="ptUVhh9PH6rea_wkWG5l-160" value="" style="ellipse;whiteSpace=wrap;html=1;aspect=fixed;fillColor=#ffe6cc;strokeColor=#d79b00;" parent="1" vertex="1">
          <mxGeometry x="270" y="540" width="10" height="10" as="geometry" />
        </mxCell>
        <mxCell id="ptUVhh9PH6rea_wkWG5l-161" value="" style="ellipse;whiteSpace=wrap;html=1;aspect=fixed;fillColor=#f8cecc;strokeColor=#b85450;" parent="1" vertex="1">
          <mxGeometry x="295" y="540" width="10" height="10" as="geometry" />
        </mxCell>
        <mxCell id="ptUVhh9PH6rea_wkWG5l-162" value="" style="ellipse;whiteSpace=wrap;html=1;aspect=fixed;fillColor=#e1d5e7;strokeColor=#9673a6;" parent="1" vertex="1">
          <mxGeometry x="325" y="590" width="10" height="10" as="geometry" />
        </mxCell>
        <mxCell id="ptUVhh9PH6rea_wkWG5l-163" value="" style="ellipse;whiteSpace=wrap;html=1;aspect=fixed;fillColor=#fff2cc;strokeColor=#d6b656;" parent="1" vertex="1">
          <mxGeometry x="295" y="590" width="10" height="10" as="geometry" />
        </mxCell>
        <mxCell id="ptUVhh9PH6rea_wkWG5l-164" value="" style="ellipse;whiteSpace=wrap;html=1;aspect=fixed;fillColor=#fff2cc;strokeColor=#d6b656;" parent="1" vertex="1">
          <mxGeometry x="270" y="590" width="10" height="10" as="geometry" />
        </mxCell>
        <mxCell id="ptUVhh9PH6rea_wkWG5l-165" value="" style="ellipse;whiteSpace=wrap;html=1;aspect=fixed;fillColor=#f8cecc;strokeColor=#b85450;" parent="1" vertex="1">
          <mxGeometry x="245" y="590" width="10" height="10" as="geometry" />
        </mxCell>
        <mxCell id="ptUVhh9PH6rea_wkWG5l-167" value="" style="endArrow=classic;html=1;rounded=0;" parent="1" edge="1">
          <mxGeometry width="50" height="50" relative="1" as="geometry">
            <mxPoint x="190" y="590" as="sourcePoint" />
            <mxPoint x="200" y="580" as="targetPoint" />
          </mxGeometry>
        </mxCell>
        <mxCell id="ptUVhh9PH6rea_wkWG5l-168" value="" style="endArrow=classic;html=1;rounded=0;" parent="1" edge="1">
          <mxGeometry width="50" height="50" relative="1" as="geometry">
            <mxPoint x="205" y="570" as="sourcePoint" />
            <mxPoint x="215" y="560" as="targetPoint" />
            <Array as="points">
              <mxPoint x="215" y="560" />
            </Array>
          </mxGeometry>
        </mxCell>
        <mxCell id="ptUVhh9PH6rea_wkWG5l-170" value="" style="endArrow=classic;html=1;rounded=0;exitX=1;exitY=0;exitDx=0;exitDy=0;entryX=0;entryY=0.5;entryDx=0;entryDy=0;" parent="1" source="ptUVhh9PH6rea_wkWG5l-157" target="ptUVhh9PH6rea_wkWG5l-156" edge="1">
          <mxGeometry width="50" height="50" relative="1" as="geometry">
            <mxPoint x="215" y="580" as="sourcePoint" />
            <mxPoint x="225" y="570" as="targetPoint" />
            <Array as="points" />
          </mxGeometry>
        </mxCell>
        <mxCell id="ptUVhh9PH6rea_wkWG5l-173" value="" style="endArrow=classic;html=1;rounded=0;exitX=1;exitY=0.5;exitDx=0;exitDy=0;entryX=0;entryY=0.5;entryDx=0;entryDy=0;" parent="1" source="ptUVhh9PH6rea_wkWG5l-156" target="ptUVhh9PH6rea_wkWG5l-160" edge="1">
          <mxGeometry width="50" height="50" relative="1" as="geometry">
            <mxPoint x="234" y="561" as="sourcePoint" />
            <mxPoint x="255" y="555" as="targetPoint" />
            <Array as="points" />
          </mxGeometry>
        </mxCell>
        <mxCell id="ptUVhh9PH6rea_wkWG5l-174" value="" style="endArrow=classic;html=1;rounded=0;exitX=1;exitY=0.5;exitDx=0;exitDy=0;entryX=0;entryY=0.5;entryDx=0;entryDy=0;" parent="1" source="ptUVhh9PH6rea_wkWG5l-160" target="ptUVhh9PH6rea_wkWG5l-161" edge="1">
          <mxGeometry width="50" height="50" relative="1" as="geometry">
            <mxPoint x="265" y="555" as="sourcePoint" />
            <mxPoint x="280" y="555" as="targetPoint" />
            <Array as="points" />
          </mxGeometry>
        </mxCell>
        <mxCell id="ptUVhh9PH6rea_wkWG5l-175" value="" style="endArrow=classic;html=1;rounded=0;exitX=0;exitY=0.5;exitDx=0;exitDy=0;entryX=1;entryY=0.5;entryDx=0;entryDy=0;" parent="1" source="ptUVhh9PH6rea_wkWG5l-162" target="ptUVhh9PH6rea_wkWG5l-163" edge="1">
          <mxGeometry width="50" height="50" relative="1" as="geometry">
            <mxPoint x="290" y="555" as="sourcePoint" />
            <mxPoint x="305" y="555" as="targetPoint" />
            <Array as="points" />
          </mxGeometry>
        </mxCell>
        <mxCell id="ptUVhh9PH6rea_wkWG5l-176" value="" style="endArrow=classic;html=1;rounded=0;exitX=0;exitY=0.5;exitDx=0;exitDy=0;entryX=1;entryY=0.5;entryDx=0;entryDy=0;" parent="1" source="ptUVhh9PH6rea_wkWG5l-163" target="ptUVhh9PH6rea_wkWG5l-164" edge="1">
          <mxGeometry width="50" height="50" relative="1" as="geometry">
            <mxPoint x="335" y="605" as="sourcePoint" />
            <mxPoint x="315" y="605" as="targetPoint" />
            <Array as="points" />
          </mxGeometry>
        </mxCell>
        <mxCell id="ptUVhh9PH6rea_wkWG5l-177" value="" style="endArrow=classic;html=1;rounded=0;exitX=0;exitY=0.5;exitDx=0;exitDy=0;entryX=1;entryY=0.5;entryDx=0;entryDy=0;" parent="1" source="ptUVhh9PH6rea_wkWG5l-164" target="ptUVhh9PH6rea_wkWG5l-165" edge="1">
          <mxGeometry width="50" height="50" relative="1" as="geometry">
            <mxPoint x="305" y="605" as="sourcePoint" />
            <mxPoint x="290" y="605" as="targetPoint" />
            <Array as="points" />
          </mxGeometry>
        </mxCell>
        <mxCell id="tRHhrFOlf9yo3r4j4NDc-29" style="edgeStyle=orthogonalEdgeStyle;rounded=0;orthogonalLoop=1;jettySize=auto;html=1;" edge="1" parent="1" source="ptUVhh9PH6rea_wkWG5l-178" target="ptUVhh9PH6rea_wkWG5l-199">
          <mxGeometry relative="1" as="geometry" />
        </mxCell>
        <mxCell id="ptUVhh9PH6rea_wkWG5l-178" value="" style="rounded=1;whiteSpace=wrap;html=1;fillColor=none;" parent="1" vertex="1">
          <mxGeometry x="390" y="520" width="190" height="100" as="geometry" />
        </mxCell>
        <mxCell id="ptUVhh9PH6rea_wkWG5l-179" value="" style="ellipse;whiteSpace=wrap;html=1;aspect=fixed;fillColor=#dae8fc;strokeColor=#6c8ebf;" parent="1" vertex="1">
          <mxGeometry x="470" y="545" width="10" height="10" as="geometry" />
        </mxCell>
        <mxCell id="ptUVhh9PH6rea_wkWG5l-180" value="" style="ellipse;whiteSpace=wrap;html=1;aspect=fixed;fillColor=#dae8fc;strokeColor=#6c8ebf;" parent="1" vertex="1">
          <mxGeometry x="440" y="555" width="10" height="10" as="geometry" />
        </mxCell>
        <mxCell id="ptUVhh9PH6rea_wkWG5l-181" value="" style="ellipse;whiteSpace=wrap;html=1;aspect=fixed;fillColor=#dae8fc;strokeColor=#6c8ebf;" parent="1" vertex="1">
          <mxGeometry x="420" y="575" width="10" height="10" as="geometry" />
        </mxCell>
        <mxCell id="ptUVhh9PH6rea_wkWG5l-182" value="" style="ellipse;whiteSpace=wrap;html=1;aspect=fixed;fillColor=#dae8fc;strokeColor=#6c8ebf;" parent="1" vertex="1">
          <mxGeometry x="410" y="595" width="10" height="10" as="geometry" />
        </mxCell>
        <mxCell id="ptUVhh9PH6rea_wkWG5l-183" value="" style="ellipse;whiteSpace=wrap;html=1;aspect=fixed;fillColor=#dae8fc;strokeColor=#6c8ebf;" parent="1" vertex="1">
          <mxGeometry x="495" y="545" width="10" height="10" as="geometry" />
        </mxCell>
        <mxCell id="ptUVhh9PH6rea_wkWG5l-184" value="" style="ellipse;whiteSpace=wrap;html=1;aspect=fixed;fillColor=#dae8fc;strokeColor=#6c8ebf;" parent="1" vertex="1">
          <mxGeometry x="520" y="545" width="10" height="10" as="geometry" />
        </mxCell>
        <mxCell id="ptUVhh9PH6rea_wkWG5l-185" value="" style="ellipse;whiteSpace=wrap;html=1;aspect=fixed;fillColor=#f8cecc;strokeColor=#b85450;" parent="1" vertex="1">
          <mxGeometry x="550" y="595" width="10" height="10" as="geometry" />
        </mxCell>
        <mxCell id="ptUVhh9PH6rea_wkWG5l-186" value="" style="ellipse;whiteSpace=wrap;html=1;aspect=fixed;fillColor=#f8cecc;strokeColor=#b85450;" parent="1" vertex="1">
          <mxGeometry x="520" y="595" width="10" height="10" as="geometry" />
        </mxCell>
        <mxCell id="ptUVhh9PH6rea_wkWG5l-187" value="" style="ellipse;whiteSpace=wrap;html=1;aspect=fixed;fillColor=#f8cecc;strokeColor=#b85450;" parent="1" vertex="1">
          <mxGeometry x="495" y="595" width="10" height="10" as="geometry" />
        </mxCell>
        <mxCell id="ptUVhh9PH6rea_wkWG5l-188" value="" style="ellipse;whiteSpace=wrap;html=1;aspect=fixed;fillColor=#f8cecc;strokeColor=#b85450;" parent="1" vertex="1">
          <mxGeometry x="470" y="595" width="10" height="10" as="geometry" />
        </mxCell>
        <mxCell id="ptUVhh9PH6rea_wkWG5l-189" value="" style="endArrow=classic;html=1;rounded=0;" parent="1" edge="1">
          <mxGeometry width="50" height="50" relative="1" as="geometry">
            <mxPoint x="415" y="595" as="sourcePoint" />
            <mxPoint x="425" y="585" as="targetPoint" />
          </mxGeometry>
        </mxCell>
        <mxCell id="ptUVhh9PH6rea_wkWG5l-190" value="" style="endArrow=classic;html=1;rounded=0;" parent="1" edge="1">
          <mxGeometry width="50" height="50" relative="1" as="geometry">
            <mxPoint x="430" y="575" as="sourcePoint" />
            <mxPoint x="440" y="565" as="targetPoint" />
            <Array as="points">
              <mxPoint x="440" y="565" />
            </Array>
          </mxGeometry>
        </mxCell>
        <mxCell id="ptUVhh9PH6rea_wkWG5l-191" value="" style="endArrow=classic;html=1;rounded=0;exitX=1;exitY=0;exitDx=0;exitDy=0;entryX=0;entryY=0.5;entryDx=0;entryDy=0;" parent="1" source="ptUVhh9PH6rea_wkWG5l-180" target="ptUVhh9PH6rea_wkWG5l-179" edge="1">
          <mxGeometry width="50" height="50" relative="1" as="geometry">
            <mxPoint x="440" y="585" as="sourcePoint" />
            <mxPoint x="450" y="575" as="targetPoint" />
            <Array as="points" />
          </mxGeometry>
        </mxCell>
        <mxCell id="ptUVhh9PH6rea_wkWG5l-192" value="" style="endArrow=classic;html=1;rounded=0;exitX=1;exitY=0.5;exitDx=0;exitDy=0;entryX=0;entryY=0.5;entryDx=0;entryDy=0;" parent="1" source="ptUVhh9PH6rea_wkWG5l-179" target="ptUVhh9PH6rea_wkWG5l-183" edge="1">
          <mxGeometry width="50" height="50" relative="1" as="geometry">
            <mxPoint x="459" y="566" as="sourcePoint" />
            <mxPoint x="480" y="560" as="targetPoint" />
            <Array as="points" />
          </mxGeometry>
        </mxCell>
        <mxCell id="ptUVhh9PH6rea_wkWG5l-193" value="" style="endArrow=classic;html=1;rounded=0;exitX=1;exitY=0.5;exitDx=0;exitDy=0;entryX=0;entryY=0.5;entryDx=0;entryDy=0;" parent="1" source="ptUVhh9PH6rea_wkWG5l-183" target="ptUVhh9PH6rea_wkWG5l-184" edge="1">
          <mxGeometry width="50" height="50" relative="1" as="geometry">
            <mxPoint x="490" y="560" as="sourcePoint" />
            <mxPoint x="505" y="560" as="targetPoint" />
            <Array as="points" />
          </mxGeometry>
        </mxCell>
        <mxCell id="ptUVhh9PH6rea_wkWG5l-194" value="" style="endArrow=classic;html=1;rounded=0;exitX=0;exitY=0.5;exitDx=0;exitDy=0;entryX=1;entryY=0.5;entryDx=0;entryDy=0;" parent="1" source="ptUVhh9PH6rea_wkWG5l-185" target="ptUVhh9PH6rea_wkWG5l-186" edge="1">
          <mxGeometry width="50" height="50" relative="1" as="geometry">
            <mxPoint x="515" y="560" as="sourcePoint" />
            <mxPoint x="530" y="560" as="targetPoint" />
            <Array as="points" />
          </mxGeometry>
        </mxCell>
        <mxCell id="ptUVhh9PH6rea_wkWG5l-195" value="" style="endArrow=classic;html=1;rounded=0;exitX=0;exitY=0.5;exitDx=0;exitDy=0;entryX=1;entryY=0.5;entryDx=0;entryDy=0;" parent="1" source="ptUVhh9PH6rea_wkWG5l-186" target="ptUVhh9PH6rea_wkWG5l-187" edge="1">
          <mxGeometry width="50" height="50" relative="1" as="geometry">
            <mxPoint x="560" y="610" as="sourcePoint" />
            <mxPoint x="540" y="610" as="targetPoint" />
            <Array as="points" />
          </mxGeometry>
        </mxCell>
        <mxCell id="ptUVhh9PH6rea_wkWG5l-196" value="" style="endArrow=classic;html=1;rounded=0;exitX=0;exitY=0.5;exitDx=0;exitDy=0;entryX=1;entryY=0.5;entryDx=0;entryDy=0;" parent="1" source="ptUVhh9PH6rea_wkWG5l-187" target="ptUVhh9PH6rea_wkWG5l-188" edge="1">
          <mxGeometry width="50" height="50" relative="1" as="geometry">
            <mxPoint x="530" y="610" as="sourcePoint" />
            <mxPoint x="515" y="610" as="targetPoint" />
            <Array as="points" />
          </mxGeometry>
        </mxCell>
        <mxCell id="tRHhrFOlf9yo3r4j4NDc-30" style="edgeStyle=orthogonalEdgeStyle;rounded=0;orthogonalLoop=1;jettySize=auto;html=1;" edge="1" parent="1" source="ptUVhh9PH6rea_wkWG5l-199" target="ptUVhh9PH6rea_wkWG5l-229">
          <mxGeometry relative="1" as="geometry" />
        </mxCell>
        <mxCell id="ptUVhh9PH6rea_wkWG5l-199" value="" style="rounded=1;whiteSpace=wrap;html=1;fillColor=none;" parent="1" vertex="1">
          <mxGeometry x="625" y="520" width="190" height="100" as="geometry" />
        </mxCell>
        <mxCell id="ptUVhh9PH6rea_wkWG5l-200" value="" style="ellipse;whiteSpace=wrap;html=1;aspect=fixed;fillColor=#dae8fc;strokeColor=#6c8ebf;" parent="1" vertex="1">
          <mxGeometry x="700" y="545" width="10" height="10" as="geometry" />
        </mxCell>
        <mxCell id="ptUVhh9PH6rea_wkWG5l-201" value="" style="ellipse;whiteSpace=wrap;html=1;aspect=fixed;fillColor=#dae8fc;strokeColor=#6c8ebf;" parent="1" vertex="1">
          <mxGeometry x="670" y="555" width="10" height="10" as="geometry" />
        </mxCell>
        <mxCell id="ptUVhh9PH6rea_wkWG5l-202" value="" style="ellipse;whiteSpace=wrap;html=1;aspect=fixed;fillColor=#dae8fc;strokeColor=#6c8ebf;" parent="1" vertex="1">
          <mxGeometry x="650" y="575" width="10" height="10" as="geometry" />
        </mxCell>
        <mxCell id="ptUVhh9PH6rea_wkWG5l-203" value="" style="ellipse;whiteSpace=wrap;html=1;aspect=fixed;fillColor=#dae8fc;strokeColor=#6c8ebf;" parent="1" vertex="1">
          <mxGeometry x="640" y="595" width="10" height="10" as="geometry" />
        </mxCell>
        <mxCell id="ptUVhh9PH6rea_wkWG5l-204" value="" style="ellipse;whiteSpace=wrap;html=1;aspect=fixed;fillColor=#dae8fc;strokeColor=#6c8ebf;" parent="1" vertex="1">
          <mxGeometry x="725" y="545" width="10" height="10" as="geometry" />
        </mxCell>
        <mxCell id="ptUVhh9PH6rea_wkWG5l-205" value="" style="ellipse;whiteSpace=wrap;html=1;aspect=fixed;fillColor=#dae8fc;strokeColor=#6c8ebf;" parent="1" vertex="1">
          <mxGeometry x="750" y="545" width="10" height="10" as="geometry" />
        </mxCell>
        <mxCell id="ptUVhh9PH6rea_wkWG5l-206" value="" style="ellipse;whiteSpace=wrap;html=1;aspect=fixed;fillColor=#f8cecc;strokeColor=#b85450;" parent="1" vertex="1">
          <mxGeometry x="780" y="595" width="10" height="10" as="geometry" />
        </mxCell>
        <mxCell id="ptUVhh9PH6rea_wkWG5l-207" value="" style="ellipse;whiteSpace=wrap;html=1;aspect=fixed;fillColor=#f8cecc;strokeColor=#b85450;" parent="1" vertex="1">
          <mxGeometry x="750" y="595" width="10" height="10" as="geometry" />
        </mxCell>
        <mxCell id="ptUVhh9PH6rea_wkWG5l-208" value="" style="ellipse;whiteSpace=wrap;html=1;aspect=fixed;fillColor=#f8cecc;strokeColor=#b85450;" parent="1" vertex="1">
          <mxGeometry x="725" y="595" width="10" height="10" as="geometry" />
        </mxCell>
        <mxCell id="ptUVhh9PH6rea_wkWG5l-209" value="" style="ellipse;whiteSpace=wrap;html=1;aspect=fixed;fillColor=#f8cecc;strokeColor=#b85450;" parent="1" vertex="1">
          <mxGeometry x="700" y="595" width="10" height="10" as="geometry" />
        </mxCell>
        <mxCell id="ptUVhh9PH6rea_wkWG5l-210" value="" style="endArrow=classic;html=1;rounded=0;" parent="1" edge="1">
          <mxGeometry width="50" height="50" relative="1" as="geometry">
            <mxPoint x="645" y="595" as="sourcePoint" />
            <mxPoint x="655" y="585" as="targetPoint" />
          </mxGeometry>
        </mxCell>
        <mxCell id="ptUVhh9PH6rea_wkWG5l-211" value="" style="endArrow=classic;html=1;rounded=0;" parent="1" edge="1">
          <mxGeometry width="50" height="50" relative="1" as="geometry">
            <mxPoint x="660" y="575" as="sourcePoint" />
            <mxPoint x="670" y="565" as="targetPoint" />
            <Array as="points">
              <mxPoint x="670" y="565" />
            </Array>
          </mxGeometry>
        </mxCell>
        <mxCell id="ptUVhh9PH6rea_wkWG5l-212" value="" style="endArrow=classic;html=1;rounded=0;exitX=1;exitY=0;exitDx=0;exitDy=0;entryX=0;entryY=0.5;entryDx=0;entryDy=0;" parent="1" source="ptUVhh9PH6rea_wkWG5l-201" target="ptUVhh9PH6rea_wkWG5l-200" edge="1">
          <mxGeometry width="50" height="50" relative="1" as="geometry">
            <mxPoint x="670" y="585" as="sourcePoint" />
            <mxPoint x="680" y="575" as="targetPoint" />
            <Array as="points" />
          </mxGeometry>
        </mxCell>
        <mxCell id="ptUVhh9PH6rea_wkWG5l-213" value="" style="endArrow=classic;html=1;rounded=0;exitX=1;exitY=0.5;exitDx=0;exitDy=0;entryX=0;entryY=0.5;entryDx=0;entryDy=0;" parent="1" source="ptUVhh9PH6rea_wkWG5l-200" target="ptUVhh9PH6rea_wkWG5l-204" edge="1">
          <mxGeometry width="50" height="50" relative="1" as="geometry">
            <mxPoint x="689" y="566" as="sourcePoint" />
            <mxPoint x="710" y="560" as="targetPoint" />
            <Array as="points" />
          </mxGeometry>
        </mxCell>
        <mxCell id="ptUVhh9PH6rea_wkWG5l-214" value="" style="endArrow=classic;html=1;rounded=0;exitX=1;exitY=0.5;exitDx=0;exitDy=0;entryX=0;entryY=0.5;entryDx=0;entryDy=0;" parent="1" source="ptUVhh9PH6rea_wkWG5l-204" target="ptUVhh9PH6rea_wkWG5l-205" edge="1">
          <mxGeometry width="50" height="50" relative="1" as="geometry">
            <mxPoint x="720" y="560" as="sourcePoint" />
            <mxPoint x="735" y="560" as="targetPoint" />
            <Array as="points" />
          </mxGeometry>
        </mxCell>
        <mxCell id="ptUVhh9PH6rea_wkWG5l-215" value="" style="endArrow=classic;html=1;rounded=0;exitX=0;exitY=0.5;exitDx=0;exitDy=0;entryX=1;entryY=0.5;entryDx=0;entryDy=0;" parent="1" source="ptUVhh9PH6rea_wkWG5l-206" target="ptUVhh9PH6rea_wkWG5l-207" edge="1">
          <mxGeometry width="50" height="50" relative="1" as="geometry">
            <mxPoint x="745" y="560" as="sourcePoint" />
            <mxPoint x="760" y="560" as="targetPoint" />
            <Array as="points" />
          </mxGeometry>
        </mxCell>
        <mxCell id="ptUVhh9PH6rea_wkWG5l-216" value="" style="endArrow=classic;html=1;rounded=0;exitX=0;exitY=0.5;exitDx=0;exitDy=0;entryX=1;entryY=0.5;entryDx=0;entryDy=0;" parent="1" source="ptUVhh9PH6rea_wkWG5l-207" target="ptUVhh9PH6rea_wkWG5l-208" edge="1">
          <mxGeometry width="50" height="50" relative="1" as="geometry">
            <mxPoint x="790" y="610" as="sourcePoint" />
            <mxPoint x="770" y="610" as="targetPoint" />
            <Array as="points" />
          </mxGeometry>
        </mxCell>
        <mxCell id="ptUVhh9PH6rea_wkWG5l-217" value="" style="endArrow=classic;html=1;rounded=0;exitX=0;exitY=0.5;exitDx=0;exitDy=0;entryX=1;entryY=0.5;entryDx=0;entryDy=0;" parent="1" source="ptUVhh9PH6rea_wkWG5l-208" target="ptUVhh9PH6rea_wkWG5l-209" edge="1">
          <mxGeometry width="50" height="50" relative="1" as="geometry">
            <mxPoint x="760" y="610" as="sourcePoint" />
            <mxPoint x="745" y="610" as="targetPoint" />
            <Array as="points" />
          </mxGeometry>
        </mxCell>
        <mxCell id="ptUVhh9PH6rea_wkWG5l-218" value="" style="rounded=0;whiteSpace=wrap;html=1;rotation=-60;fillColor=none;strokeColor=#6c8ebf;strokeWidth=2;" parent="1" vertex="1">
          <mxGeometry x="628.12" y="591.09" width="31.25" height="17.83" as="geometry" />
        </mxCell>
        <mxCell id="ptUVhh9PH6rea_wkWG5l-219" value="" style="rounded=0;whiteSpace=wrap;html=1;rotation=-50;fillColor=none;strokeColor=#82b366;strokeWidth=2;" parent="1" vertex="1">
          <mxGeometry x="640" y="570" width="31.25" height="17.83" as="geometry" />
        </mxCell>
        <mxCell id="ptUVhh9PH6rea_wkWG5l-221" value="" style="rounded=0;whiteSpace=wrap;html=1;rotation=-30;fillColor=none;strokeColor=#9673a6;strokeWidth=2;" parent="1" vertex="1">
          <mxGeometry x="660" y="551.0899999999999" width="31.25" height="17.83" as="geometry" />
        </mxCell>
        <mxCell id="ptUVhh9PH6rea_wkWG5l-222" value="" style="rounded=0;whiteSpace=wrap;html=1;rotation=-5;fillColor=none;strokeColor=#d6b656;strokeWidth=2;" parent="1" vertex="1">
          <mxGeometry x="689.38" y="539.9999999999999" width="31.25" height="17.83" as="geometry" />
        </mxCell>
        <mxCell id="ptUVhh9PH6rea_wkWG5l-223" value="" style="rounded=0;whiteSpace=wrap;html=1;rotation=0;fillColor=none;strokeColor=#d79b00;strokeWidth=2;" parent="1" vertex="1">
          <mxGeometry x="714.37" y="539.9999999999999" width="31.25" height="17.83" as="geometry" />
        </mxCell>
        <mxCell id="ptUVhh9PH6rea_wkWG5l-224" value="" style="rounded=0;whiteSpace=wrap;html=1;rotation=0;fillColor=none;strokeColor=#b85450;strokeWidth=2;" parent="1" vertex="1">
          <mxGeometry x="739.38" y="539.9999999999999" width="31.25" height="17.83" as="geometry" />
        </mxCell>
        <mxCell id="ptUVhh9PH6rea_wkWG5l-225" value="" style="rounded=0;whiteSpace=wrap;html=1;rotation=0;fillColor=none;strokeColor=#9673a6;strokeWidth=2;" parent="1" vertex="1">
          <mxGeometry x="770.63" y="591.0899999999999" width="31.25" height="17.83" as="geometry" />
        </mxCell>
        <mxCell id="ptUVhh9PH6rea_wkWG5l-226" value="" style="rounded=0;whiteSpace=wrap;html=1;rotation=0;fillColor=none;strokeColor=#d6b656;strokeWidth=2;" parent="1" vertex="1">
          <mxGeometry x="739.38" y="591.0899999999999" width="31.25" height="17.83" as="geometry" />
        </mxCell>
        <mxCell id="ptUVhh9PH6rea_wkWG5l-227" value="" style="rounded=0;whiteSpace=wrap;html=1;rotation=0;fillColor=none;strokeColor=#d79b00;strokeWidth=2;" parent="1" vertex="1">
          <mxGeometry x="714.37" y="591.0899999999999" width="31.25" height="17.83" as="geometry" />
        </mxCell>
        <mxCell id="ptUVhh9PH6rea_wkWG5l-228" value="" style="rounded=0;whiteSpace=wrap;html=1;rotation=0;fillColor=none;strokeColor=#b85450;strokeWidth=2;" parent="1" vertex="1">
          <mxGeometry x="691.25" y="591.0899999999999" width="31.25" height="17.83" as="geometry" />
        </mxCell>
        <mxCell id="ptUVhh9PH6rea_wkWG5l-259" value="" style="shape=umlActor;verticalLabelPosition=bottom;verticalAlign=top;html=1;outlineConnect=0;fillColor=#dae8fc;strokeColor=#6c8ebf;" parent="1" vertex="1">
          <mxGeometry x="865" y="581.08" width="15" height="18.92" as="geometry" />
        </mxCell>
        <mxCell id="ptUVhh9PH6rea_wkWG5l-229" value="" style="rounded=1;whiteSpace=wrap;html=1;fillColor=none;" parent="1" vertex="1">
          <mxGeometry x="850" y="520" width="190" height="100" as="geometry" />
        </mxCell>
        <mxCell id="ptUVhh9PH6rea_wkWG5l-260" value="" style="shape=umlActor;verticalLabelPosition=bottom;verticalAlign=top;html=1;outlineConnect=0;fillColor=#d5e8d4;strokeColor=#82b366;" parent="1" vertex="1">
          <mxGeometry x="877.5" y="560" width="15" height="18.92" as="geometry" />
        </mxCell>
        <mxCell id="ptUVhh9PH6rea_wkWG5l-261" value="" style="shape=umlActor;verticalLabelPosition=bottom;verticalAlign=top;html=1;outlineConnect=0;fillColor=#e1d5e7;strokeColor=#9673a6;" parent="1" vertex="1">
          <mxGeometry x="897.5" y="541.08" width="15" height="18.92" as="geometry" />
        </mxCell>
        <mxCell id="ptUVhh9PH6rea_wkWG5l-262" value="" style="shape=umlActor;verticalLabelPosition=bottom;verticalAlign=top;html=1;outlineConnect=0;fillColor=#fff2cc;strokeColor=#d6b656;" parent="1" vertex="1">
          <mxGeometry x="927.5" y="531" width="15" height="18.92" as="geometry" />
        </mxCell>
        <mxCell id="ptUVhh9PH6rea_wkWG5l-263" value="" style="shape=umlActor;verticalLabelPosition=bottom;verticalAlign=top;html=1;outlineConnect=0;fillColor=#ffe6cc;strokeColor=#d79b00;" parent="1" vertex="1">
          <mxGeometry x="952.5" y="531" width="15" height="18.92" as="geometry" />
        </mxCell>
        <mxCell id="ptUVhh9PH6rea_wkWG5l-264" value="" style="shape=umlActor;verticalLabelPosition=bottom;verticalAlign=top;html=1;outlineConnect=0;fillColor=#f8cecc;strokeColor=#b85450;" parent="1" vertex="1">
          <mxGeometry x="977.5" y="531" width="15" height="18.92" as="geometry" />
        </mxCell>
        <mxCell id="ptUVhh9PH6rea_wkWG5l-265" value="" style="rounded=1;whiteSpace=wrap;html=1;rotation=0;fillColor=#e1d5e7;strokeColor=#9673a6;strokeWidth=2;glass=1;shadow=0;" parent="1" vertex="1">
          <mxGeometry x="998.75" y="582.17" width="31.25" height="17.83" as="geometry" />
        </mxCell>
        <mxCell id="ptUVhh9PH6rea_wkWG5l-266" value="" style="rounded=1;whiteSpace=wrap;html=1;rotation=0;fillColor=#fff2cc;strokeColor=#d6b656;strokeWidth=2;glass=1;shadow=0;" parent="1" vertex="1">
          <mxGeometry x="967.5" y="582.17" width="31.25" height="17.83" as="geometry" />
        </mxCell>
        <mxCell id="ptUVhh9PH6rea_wkWG5l-267" value="" style="rounded=1;whiteSpace=wrap;html=1;rotation=0;fillColor=#ffe6cc;strokeColor=#d79b00;strokeWidth=2;glass=1;shadow=0;" parent="1" vertex="1">
          <mxGeometry x="942.5" y="582.17" width="31.25" height="17.83" as="geometry" />
        </mxCell>
        <mxCell id="ptUVhh9PH6rea_wkWG5l-271" value="" style="rounded=1;whiteSpace=wrap;html=1;fillColor=#000000;gradientColor=#E0FEFF;" parent="1" vertex="1">
          <mxGeometry x="1004.38" y="584.62" width="20" height="13.38" as="geometry" />
        </mxCell>
        <mxCell id="ptUVhh9PH6rea_wkWG5l-272" value="" style="rounded=1;whiteSpace=wrap;html=1;fillColor=#000000;gradientColor=#D6F1FF;" parent="1" vertex="1">
          <mxGeometry x="976" y="584.39" width="20" height="13.38" as="geometry" />
        </mxCell>
        <mxCell id="ptUVhh9PH6rea_wkWG5l-273" value="" style="rounded=1;whiteSpace=wrap;html=1;fillColor=#000000;gradientColor=#EBFFFF;" parent="1" vertex="1">
          <mxGeometry x="951.0000000000001" y="584.39" width="20" height="13.38" as="geometry" />
        </mxCell>
        <mxCell id="ptUVhh9PH6rea_wkWG5l-268" value="" style="rounded=1;whiteSpace=wrap;html=1;rotation=0;fillColor=#f8cecc;strokeColor=#b85450;strokeWidth=2;glass=1;shadow=0;" parent="1" vertex="1">
          <mxGeometry x="927.5" y="582.1699999999998" width="31.25" height="17.83" as="geometry" />
        </mxCell>
        <mxCell id="ptUVhh9PH6rea_wkWG5l-274" value="" style="rounded=1;whiteSpace=wrap;html=1;fillColor=#000000;gradientColor=#E6FFFF;gradientDirection=east;" parent="1" vertex="1">
          <mxGeometry x="932.5000000000001" y="584.62" width="20" height="13.38" as="geometry" />
        </mxCell>
        <mxCell id="tRHhrFOlf9yo3r4j4NDc-24" value="" style="group" vertex="1" connectable="0" parent="1">
          <mxGeometry x="660" y="320" width="140" height="105" as="geometry" />
        </mxCell>
        <mxCell id="tRHhrFOlf9yo3r4j4NDc-5" value="" style="endArrow=classic;html=1;rounded=0;" edge="1" parent="tRHhrFOlf9yo3r4j4NDc-24">
          <mxGeometry width="50" height="50" relative="1" as="geometry">
            <mxPoint y="100" as="sourcePoint" />
            <mxPoint x="140" y="100" as="targetPoint" />
          </mxGeometry>
        </mxCell>
        <mxCell id="tRHhrFOlf9yo3r4j4NDc-6" value="" style="endArrow=classic;html=1;rounded=0;" edge="1" parent="tRHhrFOlf9yo3r4j4NDc-24">
          <mxGeometry width="50" height="50" relative="1" as="geometry">
            <mxPoint y="100" as="sourcePoint" />
            <mxPoint as="targetPoint" />
          </mxGeometry>
        </mxCell>
        <mxCell id="tRHhrFOlf9yo3r4j4NDc-7" value="" style="whiteSpace=wrap;html=1;aspect=fixed;fillColor=#dae8fc;strokeColor=#6c8ebf;" vertex="1" parent="tRHhrFOlf9yo3r4j4NDc-24">
          <mxGeometry x="25" y="30" width="10" height="10" as="geometry" />
        </mxCell>
        <mxCell id="tRHhrFOlf9yo3r4j4NDc-8" value="" style="whiteSpace=wrap;html=1;aspect=fixed;fillColor=#dae8fc;strokeColor=#6c8ebf;" vertex="1" parent="tRHhrFOlf9yo3r4j4NDc-24">
          <mxGeometry x="35" y="40" width="10" height="10" as="geometry" />
        </mxCell>
        <mxCell id="tRHhrFOlf9yo3r4j4NDc-9" value="" style="whiteSpace=wrap;html=1;aspect=fixed;fillColor=#dae8fc;strokeColor=#6c8ebf;" vertex="1" parent="tRHhrFOlf9yo3r4j4NDc-24">
          <mxGeometry x="20" y="50" width="10" height="10" as="geometry" />
        </mxCell>
        <mxCell id="tRHhrFOlf9yo3r4j4NDc-10" value="" style="whiteSpace=wrap;html=1;aspect=fixed;fillColor=#dae8fc;strokeColor=#6c8ebf;" vertex="1" parent="tRHhrFOlf9yo3r4j4NDc-24">
          <mxGeometry x="40" y="20" width="10" height="10" as="geometry" />
        </mxCell>
        <mxCell id="tRHhrFOlf9yo3r4j4NDc-11" value="" style="whiteSpace=wrap;html=1;aspect=fixed;fillColor=#f8cecc;strokeColor=#b85450;" vertex="1" parent="tRHhrFOlf9yo3r4j4NDc-24">
          <mxGeometry x="90" y="35" width="10" height="10" as="geometry" />
        </mxCell>
        <mxCell id="tRHhrFOlf9yo3r4j4NDc-12" value="" style="whiteSpace=wrap;html=1;aspect=fixed;fillColor=#f8cecc;strokeColor=#b85450;" vertex="1" parent="tRHhrFOlf9yo3r4j4NDc-24">
          <mxGeometry x="105" y="45" width="10" height="10" as="geometry" />
        </mxCell>
        <mxCell id="tRHhrFOlf9yo3r4j4NDc-13" value="" style="whiteSpace=wrap;html=1;aspect=fixed;fillColor=#f8cecc;strokeColor=#b85450;" vertex="1" parent="tRHhrFOlf9yo3r4j4NDc-24">
          <mxGeometry x="70" y="30" width="10" height="10" as="geometry" />
        </mxCell>
        <mxCell id="tRHhrFOlf9yo3r4j4NDc-14" value="" style="whiteSpace=wrap;html=1;aspect=fixed;fillColor=#f8cecc;strokeColor=#b85450;" vertex="1" parent="tRHhrFOlf9yo3r4j4NDc-24">
          <mxGeometry x="105" y="15" width="10" height="10" as="geometry" />
        </mxCell>
        <mxCell id="tRHhrFOlf9yo3r4j4NDc-16" value="" style="whiteSpace=wrap;html=1;aspect=fixed;fillColor=#fff2cc;strokeColor=#d6b656;" vertex="1" parent="tRHhrFOlf9yo3r4j4NDc-24">
          <mxGeometry x="50" y="80" width="10" height="10" as="geometry" />
        </mxCell>
        <mxCell id="tRHhrFOlf9yo3r4j4NDc-17" value="" style="whiteSpace=wrap;html=1;aspect=fixed;fillColor=#fff2cc;strokeColor=#d6b656;" vertex="1" parent="tRHhrFOlf9yo3r4j4NDc-24">
          <mxGeometry x="70" y="80" width="10" height="10" as="geometry" />
        </mxCell>
        <mxCell id="tRHhrFOlf9yo3r4j4NDc-18" value="" style="whiteSpace=wrap;html=1;aspect=fixed;fillColor=#fff2cc;strokeColor=#d6b656;" vertex="1" parent="tRHhrFOlf9yo3r4j4NDc-24">
          <mxGeometry x="53.79000000000002" y="65" width="10" height="10" as="geometry" />
        </mxCell>
        <mxCell id="tRHhrFOlf9yo3r4j4NDc-19" value="" style="whiteSpace=wrap;html=1;aspect=fixed;fillColor=#fff2cc;strokeColor=#d6b656;" vertex="1" parent="tRHhrFOlf9yo3r4j4NDc-24">
          <mxGeometry x="70" y="65" width="10" height="10" as="geometry" />
        </mxCell>
        <mxCell id="tRHhrFOlf9yo3r4j4NDc-21" value="" style="curved=1;endArrow=none;html=1;rounded=0;endFill=0;dashed=1;" edge="1" parent="tRHhrFOlf9yo3r4j4NDc-24">
          <mxGeometry width="50" height="50" relative="1" as="geometry">
            <mxPoint x="70" y="95" as="sourcePoint" />
            <mxPoint x="70" y="95" as="targetPoint" />
            <Array as="points">
              <mxPoint x="50" y="105" />
              <mxPoint x="40" y="60" />
              <mxPoint x="80" y="60" />
              <mxPoint x="90" y="70" />
              <mxPoint x="100" y="90" />
            </Array>
          </mxGeometry>
        </mxCell>
        <mxCell id="tRHhrFOlf9yo3r4j4NDc-22" value="" style="curved=1;endArrow=none;html=1;rounded=0;endFill=0;dashed=1;" edge="1" parent="tRHhrFOlf9yo3r4j4NDc-24">
          <mxGeometry width="50" height="50" relative="1" as="geometry">
            <mxPoint x="100" y="60" as="sourcePoint" />
            <mxPoint x="100" y="60" as="targetPoint" />
            <Array as="points">
              <mxPoint x="73.79000000000002" y="65" />
              <mxPoint x="53.79000000000002" y="15" />
              <mxPoint x="100" y="10" />
              <mxPoint x="130" y="10" />
              <mxPoint x="120" y="30" />
              <mxPoint x="130" y="60" />
            </Array>
          </mxGeometry>
        </mxCell>
        <mxCell id="tRHhrFOlf9yo3r4j4NDc-23" value="" style="curved=1;endArrow=none;html=1;rounded=0;endFill=0;dashed=1;" edge="1" parent="tRHhrFOlf9yo3r4j4NDc-24">
          <mxGeometry width="50" height="50" relative="1" as="geometry">
            <mxPoint x="40" y="60" as="sourcePoint" />
            <mxPoint x="40" y="60" as="targetPoint" />
            <Array as="points">
              <mxPoint x="12" y="75" />
              <mxPoint x="10" y="30" />
              <mxPoint x="30" y="10" />
              <mxPoint x="38.20999999999998" y="20" />
              <mxPoint x="50" />
              <mxPoint x="60" y="50" />
            </Array>
          </mxGeometry>
        </mxCell>
        <mxCell id="tRHhrFOlf9yo3r4j4NDc-25" value="Feature Clustering" style="text;html=1;strokeColor=none;fillColor=none;align=center;verticalAlign=middle;whiteSpace=wrap;rounded=0;fontSize=16;" vertex="1" parent="1">
          <mxGeometry x="625" y="425" width="210" height="30" as="geometry" />
        </mxCell>
      </root>
    </mxGraphModel>
  </diagram>
</mxfile>
